inDegrees=no
num_controls=7
num_derivatives=13
num_iterations=71
num_multipliers=7
num_parameters=0
num_slacks=7
num_states=26
objective=5.602630
objective_accelerations=0.243169
objective_balance=0.053075
objective_effort=0.361606
objective_height=4.899621
objective_ligament=0.045160
solver_duration=616.495433
status=Solve_Succeeded
success=true
DataType=double
version=3
OpenSimVersion=4.4-2022-07-23-0e9fedc
endheader
time	/jointset/ground_pelvis/pelvis_tilt/value	/jointset/ground_pelvis/pelvis_tx/value	/jointset/ground_pelvis/pelvis_ty/value	/jointset/hip_r/hip_flexion_r/value	/jointset/hip_r/hip_adduction_r/value	/jointset/hip_r/hip_rotation_r/value	/jointset/back/lumbar_extension/value	/jointset/patellofemoral_r/patellar_flexion_r/value	/jointset/knee_r/knee_flexion_r/value	/jointset/knee_r/knee_adduction_r/value	/jointset/knee_r/knee_rotation_r/value	/jointset/ankle_r/ankle_angle_r/value	/jointset/subtalar_r/subtalar_angle_r/value	/jointset/ground_pelvis/pelvis_tilt/speed	/jointset/ground_pelvis/pelvis_tx/speed	/jointset/ground_pelvis/pelvis_ty/speed	/jointset/hip_r/hip_flexion_r/speed	/jointset/hip_r/hip_adduction_r/speed	/jointset/hip_r/hip_rotation_r/speed	/jointset/back/lumbar_extension/speed	/jointset/patellofemoral_r/patellar_flexion_r/speed	/jointset/knee_r/knee_flexion_r/speed	/jointset/knee_r/knee_adduction_r/speed	/jointset/knee_r/knee_rotation_r/speed	/jointset/ankle_r/ankle_angle_r/speed	/jointset/subtalar_r/subtalar_angle_r/speed	/forceset/tau_hip_flexion_r	/forceset/tau_hip_adduction_r	/forceset/tau_hip_rotation_r	/forceset/tau_knee_flexion_r	/forceset/tau_ankle_angle_r	/forceset/tau_subtalar_angle_r	/forceset/tau_lumbar_extension	lambda_cid13_p0	lambda_cid14_p0	lambda_cid14_p1	lambda_cid14_p2	lambda_cid14_p3	lambda_cid14_p4	lambda_cid14_p5	/jointset/ground_pelvis/pelvis_tilt/accel	/jointset/ground_pelvis/pelvis_tx/accel	/jointset/ground_pelvis/pelvis_ty/accel	/jointset/hip_r/hip_flexion_r/accel	/jointset/hip_r/hip_adduction_r/accel	/jointset/hip_r/hip_rotation_r/accel	/jointset/back/lumbar_extension/accel	/jointset/patellofemoral_r/patellar_flexion_r/accel	/jointset/knee_r/knee_flexion_r/accel	/jointset/knee_r/knee_adduction_r/accel	/jointset/knee_r/knee_rotation_r/accel	/jointset/ankle_r/ankle_angle_r/accel	/jointset/subtalar_r/subtalar_angle_r/accel	gamma_cid13_p0	gamma_cid14_p0	gamma_cid14_p1	gamma_cid14_p2	gamma_cid14_p3	gamma_cid14_p4	gamma_cid14_p5
1.5	-0.0320144309723689	0.1009657202947171	0.9012760247688903	0.4544403308857392	-0.2292892684616573	-0.164511852778561	-0.2534116634679516	0.513298521803522	0.513298521803459	0.07009048970246794	0.174517359186963	0.2546402105258185	0.05567692205626056	0.02006728382487861	0.03932787454035195	0.1966684938911663	-0.8804915797877605	0.02597825335665521	-0.2599136139389821	0.6944276143020315	-1.397663645151256	-1.397663645151206	0.2126084016877612	-3.039960856713838e-06	-0.6142852414104765	-0.1399660293680706	-0.01013994366528174	-0.01454020621937693	0.002508606310807276	-0.2939303777982606	0.0237316912150547	-0.019185743060197	0.08358176160870169	-40.01254594957288	-35.0550195271623	-9.926336554313513	-3.147742194705634	7.83883423967144	-673.0822085983991	53.72869309009407	-0.08493568809198385	0.0545995971066868	-0.3067263394580447	-0.3344824744793264	0.0004297787352285486	-0.3957311205801874	0.8039960265926168	-0.7339214333223869	-0.7339214333224205	0.3333515609761469	-0.02053558993438064	-0.4081198644755737	-0.01293565715059203	9.769336031688184e-08	4.126039403781381e-08	-9.873606993498194e-07	5.795735468187801e-07	8.266808530031839e-08	1.958555388011357e-08	-9.106808312375781e-07
1.51	-0.0318181922736935	0.1013616240566621	0.9032268939452129	0.4456202054586616	-0.2290300500618758	-0.1671309762490059	-0.2464280395320119	0.4992874783653106	0.4992874783653511	0.0722340641003579	0.1745173111190438	0.2484776937873951	0.05427605186280457	0.01918501331108677	0.03984110127200946	0.1934637023146068	-0.8833979120732849	0.02585899838285055	-0.2638811352395106	0.7021829214527376	-1.404319859526752	-1.404319859526703	0.2160991382672633	-8.77062684856287e-06	-0.6181269986787928	-0.1401910080431346	-0.006231546262276108	-0.01651598786208588	0.002035580043502696	-0.2914750889218159	0.0286132168861278	-0.02037091588672406	0.07967336395671797	-40.4460264848279	-33.45316971111467	-10.08215140311962	-3.212490663855012	7.292557842103775	-671.1478822290289	53.78023511012098	-0.08918375728085508	0.0479348182658785	-0.3335916928028086	-0.2483645650649618	-0.01906602861324698	-0.3926403002695806	0.7441603446288223	-0.5977154981213658	-0.5977154981214227	0.3557231447324685	0.009178589773673584	-0.3585152203855753	-0.02482496936200457	1.041727115038548e-07	4.675658580032859e-08	-1.053918681223103e-06	6.135957411158089e-07	8.45182936907364e-08	3.87772234170283e-08	-9.637976663498238e-07
1.52	-0.03163063848503755	0.1017623102073384	0.9051444679805617	0.436775085516866	-0.228772216790543	-0.1697888504655242	-0.2393702900674919	0.4852166239717185	0.4852166239718229	0.07441230355180634	0.1745171598232761	0.2422794971638089	0.05287342268325859	0.0183303018269697	0.04028435228661121	0.1900094656962462	-0.8854904827378288	0.0257012276820046	-0.2676637631592486	0.7092527200162058	-1.409625836240569	-1.409625836240521	0.2195414123785634	-2.368550462463951e-05	-0.6214212184421471	-0.1403178265853041	-0.00232314885875103	-0.01849176950460213	0.001562553775211087	-0.2890198000451688	0.03349474255729788	-0.02155608871294786	0.07576496630511083	-40.84612869460366	-31.85899705902162	-10.23549291099475	-3.281994422173613	6.744494066461406	-669.3460048559554	53.88468734959292	-0.07942388215683686	0.04060445369528041	-0.3566153478182681	-0.1717301502830442	-0.007273366672976459	-0.3587524444218592	0.6668943091451448	-0.4638739009866648	-0.4638739009866641	0.3236590673358431	-0.02237243229138845	-0.2986123634834761	0.006696369428193518	1.101939043828887e-07	5.218616404991277e-08	-1.112551693403856e-06	6.457130223925149e-07	8.573561948358812e-08	5.778369905996458e-08	-1.01144312878248e-06
1.53	-0.03145138642286327	0.1021670546794178	0.9070263179131716	0.4279129661374417	-0.2285161751338332	-0.1724836923699048	-0.2322454549551063	0.4710994028085335	0.4710994028086104	0.07662475016684468	0.1745168794310993	0.2360510520934641	0.05146997717431715	0.01752543501958981	0.04064989265252987	0.1863232204176945	-0.886792593216141	0.02550174957649032	-0.2712745059114526	0.7155921942888329	-1.413587205340828	-1.413587205340913	0.2229341760856509	-3.316186363877158e-05	-0.62417568397749	-0.1403535318002389	0.001623589334833811	-0.02051393148770928	0.00106999859081157	-0.2865823729053631	0.03838480861051756	-0.02284360707316186	0.07183532439302752	-41.2119939776066	-30.2729997845609	-10.43911440945444	-3.338456034383739	6.235790973297303	-667.6201998270003	53.92162929330355	-0.08021418363923885	0.03234872037105643	-0.3802068464370582	-0.088326003117596	-0.02709029453743529	-0.3575750749436676	0.5991577607897084	-0.3276134959737337	-0.3276134959934884	0.3449046879160941	0.009762017540264697	-0.2500224280647555	-0.006147524352924837	1.157283040597376e-07	5.75449654420082e-08	-1.162764425286293e-06	6.758063335851279e-07	8.628050751652566e-08	7.659340619054876e-08	-1.053275257743071e-06
